<svg xmlns="http://www.w3.org/2000/svg" viewBox="0 0 400 400" id="Post-It-To-Do-Notes--Streamline-Free-Illustrations" height="400" width="400">
  <desc>
    Post It To Do Notes Streamline Illustration: https://streamlinehq.com
  </desc>
  <g>
    <g>
      <path d="M386.84 26.24c-0.5 1.18 1.82 27.86 -1.7 71.02 -2.24 27.64 0.94 53.12 1.06 87.36 0 24.96 -2.34 59.3 -2 83.86 0.36 38.36 1.66 70.54 2.32 90.9 0.48 14.8 -11.76 23.54 -28.98 23.26 -38.44 -0.62 -108.9 -2 -172.26 -3.46 -22.42 -0.48 -38.66 -4.32 -57.56 -4.74 -15.86 -0.36 -35.14 2.7 -46.3 2.46l-27.48 -0.62s10 -303.16 10 -304.16a169.12 169.12 0 0 0 0.6 -28.46L65.22 28S64 25.04 72 24.52s90.92 -0.52 90.92 -0.52Z" fill="#ffffff" stroke-width="1"></path>
      <path d="M284.68 384c0 -0.38 4.2 -25.34 4.38 -28.56s-1.06 -12.98 5.74 -11.82 48.62 8.68 48.62 8.68l-3.12 36s-13.08 0.36 -21.14 0.54 -24.36 -0.82 -27.58 -0.9 -7.9 0.36 -6.9 -3.94Z" fill="#fff59e" stroke-width="1"></path>
      <path d="M57.52 256.62s-11.86 22 -11.86 22.3 -4.94 99.32 -2.94 98 11.12 -0.56 11.12 -0.56Z" fill="#d8e9ff" stroke-width="1"></path>
      <path d="m57.28 156.9 3.84 -4.12L65.22 28s0.7 -3.48 6 -3.62 316.42 1.76 316.42 1.76L386 11.36c-8 2.16 -326 -1.64 -330.2 3.78 -2.92 3.78 -2.62 11.72 -2.62 11.72s-4.56 144 -4 142.66 6.18 -11.22 8.1 -12.62Z" fill="#d8e9ff" stroke-width="1"></path>
      <path d="m12.74 250.4 13.06 -18.84s11.54 -18.12 13.44 -24.34 4.78 -14.88 6 -19.76 4.52 -15.14 4.52 -15.14 6.3 -13.62 7.48 -15.42 5.76 -4 8.48 -6.14 20 -6.16 23 -7.64 11.18 0.14 14.52 0 9 1.12 13.16 0 12.54 -0.84 12.62 2.76a67.52 67.52 0 0 1 -0.82 9.48s-6.66 6.22 -2 9.1 8.2 7.4 6.44 8.8a16.22 16.22 0 0 1 -5.62 2.12c0 8.82 -0.58 6.32 -0.46 16.78a7.62 7.62 0 0 1 -5.14 5.4c-4.14 1.08 -3.2 -9.26 -5.4 -8 -6.32 3.8 -7.84 1.8 -8.2 3.52s-2.72 6.14 -6.96 13.44S90 228.76 74.5 237.24s-19.48 23.36 -22 28.22S34.54 304 22.56 329.32L13.18 348a139.18 139.18 0 0 1 -0.62 -19.66c0.54 -8.58 -0.46 -30.22 -0.64 -39.6s-0.54 -34.18 0.82 -38.34Z" fill="#ffceb6" stroke-width="1"></path>
      <path d="m218.18 254.36 -2.3 -12a245.16 245.16 0 0 0 -1.02 -28s3.3 -14 9.4 -17.04c0 0 3.32 -5.64 5.48 -10.26s6.22 -6.36 8.52 -8.52 8.68 -8.24 10.98 -5.64a60.12 60.12 0 0 1 4.2 5.34l3.8 -6s2.4 -8 6.18 -8 7.34 3.22 7.66 5.32 1.38 6 0.4 9.18 -3.16 8.26 3.34 10 3.8 4.42 4.78 6.54 7.74 5.06 7.62 8.46 -1.64 6 0 8.92c0 0 4.78 13.3 3.5 17.3s-9.66 20.68 -10.5 24 -8.2 16.8 -8.8 19.7 -1.1 14.84 -1.62 19.1 -1.44 12 -0.76 15.02 3.08 27.46 4 32.34 4.58 41.1 4.24 41.7 -21.04 2.36 -28.88 3.14 -23.24 0.8 -28.26 0.72 -8.28 0.1 -7.08 -1.28 0.5 -9.3 1.28 -13.24 4.38 -20.98 4.7 -26.86 3.06 -23.1 3.74 -29.22 1.2 -16.86 1.12 -21.72a67.02 67.02 0 0 0 -2.16 -17.32c-1.92 -7.1 -2.96 -18.62 -3.56 -21.68Z" fill="#ffceb6" stroke-width="1"></path>
      <path d="M113.44 300.6q-2.76 24.62 -5.44 49.24a84.26 84.26 0 0 0 -12 -3.6A37.14 37.14 0 0 0 84.34 344c-1.54 -0.32 -3.02 -0.96 -4.56 -1.34 -7.32 -1.84 -5.06 6 2.66 -49.84a154.72 154.72 0 0 1 31 7.78Z" fill="#fff59e" stroke-width="1"></path>
      <path d="M341.48 46.8c15.46 1.7 15.72 0.18 15.5 2 -2.38 19.14 -2 22.72 -3.48 27.64 -2.14 7.12 -4.72 23.1 -7.72 23.02 -28.98 -0.64 -6.34 0.78 -31.52 -1.58 -6.58 -0.62 -9.82 0.4 -11.72 0 4.94 -12.46 4.56 -12 8.18 -28.14 4.42 -19.82 1.64 -9.32 3.6 -23.78 23.68 -0.14 15.68 -0.4 27.16 0.84Z" fill="#fff59e" stroke-width="1"></path>
      <path d="M270.24 47.22c2 -0.3 3.04 -0.34 2.88 1.38 -3.8 41.48 -0.72 13.8 -4.98 43 -0.28 1.84 -0.2 2 -2 2.18 -6 0.32 -27 -0.76 -40.2 0.52a130.12 130.12 0 0 0 4.9 -27.48s1.28 -20 2.44 -20.16a74.32 74.32 0 0 1 12.46 0.3c2.98 0.12 22.46 0.58 24.5 0.26Z" fill="#fff59e" stroke-width="1"></path>
      <path d="M259.14 121.12c2.58 0.22 4.38 -0.22 4.28 1.86a290.52 290.52 0 0 1 -4 30.46c-2.88 16.92 -2.3 14.44 -6.32 21.46 -4.26 -4.84 -3.36 -4.4 -6.2 -4.34 -4.92 0 -6.96 6.76 -10 5.06 -0.88 -0.48 -15.26 -0.78 -20.9 -2.2 0 -1.42 0.7 -7.2 2.9 -20.86 1.74 -10.68 2 -30.36 2.98 -31.12 -0.92 -0.58 -1.46 -0.6 8.92 -0.12a150.18 150.18 0 0 1 19.56 -0.2c4.42 0.12 0.06 -0.82 8.78 0Z" fill="#fff59e" stroke-width="1"></path>
      <path d="M327.3 120.32c14.9 1.22 18.2 -0.22 18 1.46 -1.32 19.04 -8.66 37.5 -14.62 54.32 -0.84 2.4 -1.56 4.96 -2.52 4.84 -6.98 -0.94 -24.38 -5.24 -24.42 -5.24 -1.12 -0.24 -2.3 -0.2 -3.42 -0.42 -4.72 -1 -5.74 -1.64 -8.38 -1.68 -7.2 0 -6.46 -0.24 -6.68 -0.84 3.66 -7.82 5.58 -10.6 11.54 -35.06 5.12 -20.94 -1.56 -17.46 8.5 -17.6 0 0 7.7 -0.8 10.2 -0.84 1.4 -0.02 -1.74 -0.06 11.8 1.06Z" fill="#fff59e" stroke-width="1"></path>
      <path d="M350.42 240.64c-4 61.26 -3.18 40.98 -4.7 70.4 -3.18 1.76 -18.28 -3.16 -23.54 -3.86 -6.62 -0.9 -6.42 -0.84 -6.84 -1.04 -3.12 -1.64 -5.26 -1.26 -16.34 -3.76 -1.4 -0.32 -2.58 -1.08 -3.44 -1.16 -2.68 -0.28 -1.52 -1.08 -1.2 -7.66 0.56 -11.58 7.04 -58.76 7.08 -59.44 1.74 0.34 14.86 2.26 15.62 2 2.48 -0.6 4.74 0.52 7.12 0.86 25.04 3.62 13.5 1.26 26.24 3.66Z" fill="#fff59e" stroke-width="1"></path>
      <path d="M219.06 328.74c-4.18 32 -6 34.68 -7.44 48.94L200 375.16c0.36 -8.76 4.22 -42 5.18 -50Z" fill="#fff59e" stroke-width="1"></path>
      <path d="M178.22 318.3c2.44 0.66 -2.94 27.76 -5.86 55.42 -19.16 -5.72 -10 -5.32 -22.14 -8 -3 -0.62 -2.46 0.4 -8.6 -2.28 -2.34 -1 -4 -1.76 -3.88 -2.74 2 -13.62 3.12 -14.74 3.4 -19.44 0.42 -6.86 3.74 -29.62 4 -31.78 11.38 4.16 6.86 1.68 33.08 8.82Z" fill="#fff59e" stroke-width="1"></path>
      <path d="M215.36 248.88c4.48 13.66 -0.2 6.96 6.4 38 -6.24 -0.48 -11.88 -2.58 -17.84 -3.56 0 0 7.6 -63.52 8.34 -63.2s1.38 -0.18 1.42 0.82c0.58 16.28 -1.68 17.94 1.68 27.94Z" fill="#fff59e" stroke-width="1"></path>
      <path d="M191.16 217.6c-2.84 19.52 -6.62 38.74 -10.42 58 -3.14 -1.58 -0.6 2.8 -22.88 -3.18 -4.14 -1.1 -8.34 -2.96 -12.16 -2.3a24.76 24.76 0 0 1 -6.82 -0.76c7.02 -26.62 2 -7.72 5.34 -24.48 2.58 -13.26 0.86 -11.06 1.7 -16.2 1.18 -7.3 1.3 -2.84 2.66 -15.1 9.7 2.24 6.32 1.22 18.26 1.28 5.26 0.08 16.2 2.74 24.32 2.74Z" fill="#fff59e" stroke-width="1"></path>
      <path d="M120.32 210.66c-8 41.32 -0.88 10.72 -10.66 53.08 -0.5 2.14 -12.36 -1.52 -30.32 -4.94 -1.6 -0.3 -1.26 -1.38 -1.12 -2 6.82 -26.14 4.94 -24.18 6 -24.98 10.72 -7.5 15.06 -22.64 17.78 -22.38 7.82 0.82 14.72 0.56 18.32 1.22Z" fill="#fff59e" stroke-width="1"></path>
      <path d="M120.18 121.02c0 7.82 -0.86 10.76 -1.12 19.28a0.72 0.72 0 0 1 -0.76 0.8c-2.68 0.2 -5.36 0.5 -8 0.56 -8.72 0.2 -10 -3.06 -20.56 -0.74 0.92 -6.92 1.82 -13.64 2.72 -20.52 22.32 0.42 3.1 0.62 27.72 0.62Z" fill="#fff59e" stroke-width="1"></path>
      <path d="M191.24 123.66c0 33.74 -0.16 31.22 -2.3 46 -32.76 -1.12 -18.98 -1.38 -35.22 -2.2 0 -1.42 0.2 -12.5 1.52 -12.94 4 -1.38 12.58 -3.1 15.28 -5.54 1 -0.9 1.56 -2.2 0.28 -3.2s-4.42 -1.62 -15 0c0.58 -7.5 1.16 -14.84 1.7 -22 16.26 -1.44 25.46 0.68 33.74 -0.12Z" fill="#fff59e" stroke-width="1"></path>
      <path d="M198.14 47.42c0 8.5 0.34 2.34 -2 18.64 -3.84 27.1 -4 24.9 -5.46 24.64 -5.46 -1.04 -9.86 0 -17.18 -0.24 -2 0 -2 0.38 -13.56 1.02 -2.2 0.14 -3.46 0.7 -3.14 -1.22 0.78 -4.72 0.7 -5.64 2.8 -18.18 1.54 -9.16 2 -8.38 2.34 -14.8 0.36 -7.48 0.38 -9.22 1.36 -8.82 2.16 0.88 4 0 11.88 -1.24 4.84 -0.76 2.86 0.14 14.74 0.38 3.54 0.08 6.22 -0.38 8.22 -0.18Z" fill="#fff59e" stroke-width="1"></path>
      <path d="M132 48.48c0.64 0 -3.56 30.54 -5.68 37.08 -1.54 4.62 2.38 2.44 -14.54 2.44a117.48 117.48 0 0 0 -14 0.5c-2.58 0 -1.62 0.16 1.22 -13.1 0 0 3.3 -23.16 3.3 -27.12 5.56 0.48 2.12 0 7.7 0 14.58 0.32 15.74 -0.08 22 0.2Z" fill="#fff59e" stroke-width="1"></path>
      <path d="M388.6 11.28c0 2.14 3.06 1.78 -159.1 2.44 -182.56 0.72 -171.18 -0.26 -173.62 4.56 -1.72 3.4 -1.12 2 -2.32 43.48 -3.56 122.84 -5.7 108.12 2.32 94.52 5.36 -9.04 2.96 14.34 5.54 -62.76 1.38 -41.34 2 -61.68 2.28 -64.48 0.34 -3.76 2 -5.72 5.66 -5.72 6 0 309.1 1.34 318 1.84 3.18 0.16 1.54 2.12 0.32 2.26 -1.08 1 -316.8 -2.26 -320.78 -1.02 -1.02 0.32 -4.28 124.64 -4.28 124.68 21.2 -9.28 24.42 -8.18 24.42 -10.16 0 -4.8 0.84 -4.52 2 -15.18 0.8 -7.44 0.22 -7.42 3.1 -7.8 9.76 -1.26 10.96 0.8 26.42 0 1.72 0 4 -0.22 4 1.12C124 146.8 118 138.72 127.02 142a6.52 6.52 0 0 1 3.74 6.88c-0.2 1.12 19.02 -2.32 19.14 -2.34 3.44 -0.56 2.78 2.78 4.3 -16.68 0.62 -8.18 0 -8.78 1.48 -9.18a4.34 4.34 0 0 1 2 -0.24c2.3 0.5 4.46 -0.38 6.68 -0.44 3.12 -0.12 23.44 0.52 23.48 0.52 8.44 0 5.9 -4 6.16 18.66 0.36 12.6 -0.5 17.8 -2.4 31.56 -0.16 1.04 -0.44 1.88 -1.76 1.72 -0.12 0 -0.26 0.18 -0.4 0.22 -4 1.06 -33.38 -1.3 -35.1 -2 -3.66 -1.62 -4.82 4 -2.4 -14l0 -1.16c-8.8 2 -17.3 4.82 -26.42 6 5.2 4.96 8.58 6.9 7.06 11.78a5.26 5.26 0 0 1 -4.54 3.8c0.78 9.88 -0.36 4.7 0 10.54 0.34 6.42 0 11.34 -6 11.78 -4.72 0.36 -6.2 -2.52 -6.78 -6.66 -0.24 -1.84 0.76 -2 -1.6 -0.92 -7.64 3.44 -2.14 0.76 -8.78 10.58a25.34 25.34 0 0 0 -2 4.44c10.68 0.94 15.58 -0.96 19.64 2 0.72 0.52 -2.58 21.06 -5.3 36.34 -2.64 14.92 -2 7.52 -4.88 20.56 -0.5 2.24 -0.38 2.82 -18.28 -1 -0.92 -0.2 -1.76 -0.8 -2.66 -1 -4.48 -0.96 -11.32 -2 -15.16 -3.24 -3.48 -1.06 -0.96 -2 4.54 -25.54 0.3 -1.32 -0.52 0 -3.34 2 -8.32 6 -10.8 6.78 -14.42 12 -6 8.78 -3.22 -8.3 -7.04 99.24 -1.02 28.52 0 29.44 -2.52 29.38 -1.74 0 -1.68 5.02 1.9 -100.78 0.74 -22 2 -19.84 -4.9 -4.52 -5.14 11.38 -3.2 -4.64 -6 78.74 -0.82 25.8 -0.26 25.42 -1.9 25.64 -2.4 0.32 -1.84 0 -1.2 -20.76 2.28 -74.2 2.36 -69.06 1.88 -69.22 -21.08 44.42 -12.36 28.62 -24.3 52.98a103.66 103.66 0 0 0 -5.48 10.44 1.4261837189 1.4261837189 0 0 1 -2.64 -1.08c3.36 -8.64 6.14 -11.2 12.92 -26.82 8.12 -18.68 2 -6.68 17.42 -38 9.52 -19.36 13.02 -28.86 17.66 -35.38 3.18 -4.48 6.68 -7 14 -12.56 16.46 -12.66 14.66 -8.8 28.34 -33.3 0.82 -1.46 1.82 -2.8 2.6 -4.28 5.12 -9.62 1.08 -5.1 9.76 -10.32 0.6 -0.36 0.12 -3.1 1.76 -3.22a1.04 1.04 0 0 1 1.2 0.94c0 0.52 0.48 1 0.6 1.52a34 34 0 0 0 2 7.46c0.68 1.2 5.84 1.8 6 -2.26 0.22 -7.64 1.6 -3.62 -3.02 -4.8 -8.78 -2.22 -6.78 -7.4 -8.2 -12.76 -2.8 2.14 -6.36 2 -9.2 4.16 1.6 3.42 3.5 7 1.86 7.52s-1.66 -1.48 -3.82 -5.54c-1.34 -2.5 -5.26 -8 -3.66 -8.44s2.34 1.38 4.24 3.74c10.14 -3.48 6.74 -2.58 10.5 -5a8.12 8.12 0 0 0 -2.6 -3.3c-0.74 -0.7 0.56 -1.6 1.12 -1.44 6.82 2 10 8.28 16 6.48 1.08 -0.32 2.56 -3.14 0.98 -4.52 -0.56 -0.5 -5.78 -5.26 -5.88 -5.52 -0.72 -2 -1.78 -0.86 -9.2 0.6 -1.7 0.34 -3.44 0.48 -5.14 0.78 -7.64 1.36 -4.64 4.52 -17.1 12 -8.52 5.22 -7.6 5.52 -9.64 8.64s-2.78 4.72 -1.84 6.72c4.18 8.96 4.22 10.5 3.4 17.44 -0.3 2.6 -0.44 4.22 -2 4 -2.6 -0.48 1.46 -6.72 -0.92 -13.34 -5.6 24.86 -11.48 20 -9.8 17.14 3.36 -5.5 3.4 -4.8 4.94 -10.24s1.5 -4.5 1.54 -13.36a5.76 5.76 0 0 1 0 -6c8.1 -15.88 9.5 -7.76 24.64 -23.6 4.76 -4.98 1.82 -10 -2.62 -10.46 2 3.18 3.46 4.6 0.5 8.58 -2.44 3.3 -8.86 3.82 -9.48 -0.34 -0.1 -0.68 0.4 -2.7 1.76 -2s0.52 2.62 2.64 2c4.38 -1.14 4.92 -3.58 3 -6s-1.84 -2 -4.96 -0.6c-16 7.6 -18.3 10.94 -21.38 14.4 -11.7 13.2 -14.14 8.48 -21.4 24 -0.16 0.32 -0.26 1.3 -2 1.16 -1.06 -0.1 0.72 -4.34 1.06 -5.1 6 -13.44 16.94 -14.7 8.74 -13.3a38.72 38.72 0 0 0 -8.1 1.62c-2 0.58 -4.56 14.7 -8.72 26.44a100 100 0 0 1 -4 9.82c-9.72 18.8 -13.76 23.24 -21.26 33.48 -2 2.68 -2.42 4.4 -4 4 -4.58 -1.12 3.54 -4.74 20.48 -34.92 6.46 -11.5 7.36 -19.02 12.34 -34.8 0.88 -2.82 1.84 -3.82 0.52 -3.84 -1.7 0 -3.62 0.76 -5 -2 -2 -4.16 -1.12 -8.16 4.6 -10 3.42 -1.06 2.18 4.56 3.44 -36.2 0 0 3.4 -107.32 3.86 -109.86 1.58 -8.7 -3.08 -9.42 86.2 -9.42 26.5 0 61.46 -0.72 107.06 -0.6 147.18 0.56 143.06 -1.46 143.04 1.04ZM188.94 169.76c2.14 -14.88 2.3 -12.36 2.3 -46 -8.28 0.8 -17.48 -1.32 -33.74 0.26 -0.54 7.14 -1.12 14.48 -1.7 22 10.58 -1.64 13.66 -1.06 15 0s0.72 2.3 -0.28 3.2c-2.7 2.44 -11.18 4.16 -15.28 5.54 -1.32 0.44 -1.52 11.52 -1.52 12.94 16.28 0.68 2.46 0.94 35.22 2.06Zm-21.14 -22c0 -0.86 -2.8 -0.3 -4 -0.16 -10.32 1.14 -9.06 1.08 -9.22 4 9.94 -2 13.12 -3.08 13.22 -3.92Zm-41.48 2.5c2 -0.32 1.78 -5.22 -1.52 -5.74 -4.56 -0.7 -11.36 0.2 -16.9 0.12 -4.7 0 -11.7 -2.34 -15.46 -1.18 -23.12 7.1 -34 9.6 -37.16 20.92 10.38 -3.12 24.92 -3.84 35.64 -10.94a18.46 18.46 0 0 1 9.38 -2.66c8.36 3.04 0.78 3.38 26.02 -0.52Zm-8.9 29.28c0.2 6.18 8.84 7.3 8.28 3.08 -0.26 -1.84 -0.28 -3.72 -0.4 -5.72 -4 0.16 -6.28 -2.74 -9.4 -4.58a22.9 22.9 0 0 1 1.52 7.22Zm1.64 -39.24c0.26 -8.52 1.12 -11.46 1.12 -19.28 -24.62 0 -5.4 -0.2 -27.76 -0.62 -0.9 6.88 -1.8 13.6 -2.72 20.52 10.58 -2.32 11.84 0.94 20.56 0.74 2.68 0 5.36 -0.36 8 -0.56a0.72 0.72 0 0 0 0.8 -0.8Zm-9.4 123.44c9.76 -42.38 2.6 -11.76 10.66 -53.08 -3.6 -0.74 -10.5 -0.4 -18.22 -1.16 -2.72 -0.26 -7.06 14.88 -17.78 22.38 -1.16 0.8 0.72 -1.16 -6 24.98 -0.14 0.56 -0.48 1.64 1.12 2 17.86 3.36 29.72 7.02 30.22 4.88Z" fill="#000001" stroke-width="1"></path>
      <path d="M357.18 45.04c0.84 0 2.78 0.16 2.66 3.02 -0.64 15.7 -5.3 43.24 -10.44 53.9 -0.38 0.76 -0.62 0.8 -6.64 0.6 -26.52 -0.9 -0.94 0.64 -27.76 -1.82 -8.16 -0.76 -17.3 1.62 -15.26 -3.66 4.28 -11 5.34 -16 9.14 -31.64 4.94 -20.4 -1.4 -22.4 5.86 -22.4 40.44 0.06 12.08 0.96 42.44 2Zm-0.2 3.68c0.22 -1.74 0 -0.22 -15.5 -2 -11.5 -1.24 -3.52 -0.98 -27.16 -0.98 -2 14.46 0.82 4 -3.6 23.78 -3.62 16.22 -3.24 15.68 -8.18 28.14 1.9 0.46 5.14 -0.56 11.72 0 25.18 2.36 2.54 0.94 31.52 1.58 3 0 5.58 -15.9 7.72 -23.02 1.46 -4.78 1.1 -8.36 3.48 -27.5Z" fill="#000001" stroke-width="1"></path>
      <path d="M353.22 239.44c0 0.46 -1.02 24.74 -1.24 27.1 -0.7 7.64 -1.06 11.02 -1.22 12.3 0.1 -3.7 -0.36 2.66 0 0 -0.46 16.28 -2.34 28 -1.54 28.12 -1.2 10.62 2 10.28 -22.58 4.66 -5.3 -1.2 -9.2 -1.6 -12.74 -2.36 -1.34 -0.28 -2.58 -0.98 -4 -1.28 -3.54 -0.8 -7.12 -1.46 -10.7 -2.24 -1.1 -0.24 -3.04 -1.12 -6.46 -2 -2.94 -0.72 -2 -1.48 -1.56 -11.54a145.88 145.88 0 0 1 2 -16.38 246.86 246.86 0 0 1 2.82 -24.98c0.48 -2.98 1.28 -6.32 2.64 -15.08 0.48 -3.14 -0.14 -4.94 2 -4.68 16.3 2 16 1.88 17.12 1.64 1.74 -0.38 14.32 2.42 14.36 2.42a119.7 119.7 0 0 1 13.28 1.06c7.7 1.58 7.68 -0.56 7.82 3.24Zm-7.5 71.6c1.52 -29.42 0.74 -9.14 4.7 -70.4 -12.74 -2.4 -1.2 0 -26.24 -3.56 -2.38 -0.34 -4.64 -1.46 -7.12 -0.86 -0.76 0.16 -13.88 -1.76 -15.62 -2 0 0.68 -6.52 47.86 -7.08 59.44 -0.32 6.58 -1.48 7.38 1.2 7.66 0.86 0 2 0.84 3.44 1.16 11.08 2.5 13.22 2.12 16.34 3.76 0.42 0.2 0.22 0.14 6.84 1.04 5.26 0.6 20.36 5.52 23.54 3.76Z" fill="#000001" stroke-width="1"></path>
      <path d="M348.12 118.96c1.48 7.34 -1.88 23.06 -6 36 -2 6.38 -4.6 13.42 -5.74 16.68 -4.58 13 -3.58 9.02 -4.3 11.06 -0.62 1.72 -0.16 1.84 -6 0.7 0 0 -30.14 -6 -31.1 -6.32 -2.5 -0.96 -6 -0.12 -11.88 -1.26 -2.74 -0.54 -1.32 -3.16 -0.46 -5.12 4.48 -10 3.8 -5.06 12.52 -41.58 0.96 -4 -0.38 -2 2.24 -11.16 0.22 -0.76 0.64 -0.68 5.7 -1.3l0 0.4c16 -2.3 7.58 -0.58 26.36 -0.18a43.54 43.54 0 0 0 12.92 0.38c1.72 -0.24 5.42 0.2 5.74 1.7Zm-2.74 2.82c0.12 -1.68 -3.18 -0.24 -18 -1.46 -13.54 -1.12 -10.4 -1.08 -11.72 -1.06 -2.5 0 -10.2 0.84 -10.2 0.84 -10 0.14 -3.38 -3.34 -8.5 17.6 -6 24.46 -7.88 27.24 -11.54 35.06 0.22 0.6 -0.52 0.74 6.68 0.84 2.64 0 3.66 0.68 8.38 1.68 1.12 0.22 2.3 0.18 3.42 0.42 0 0 17.44 4.3 24.42 5.24 0.96 0.12 1.68 -2.44 2.52 -4.84 5.88 -16.82 13.16 -35.28 14.54 -54.32Z" fill="#000001" stroke-width="1"></path>
      <path d="M329.38 348.42c18.7 3.18 16.56 -2.76 14.6 18.36 -1.82 19.6 -1.58 23.68 -4.34 23.18s0.8 -16.6 1.5 -27.34c0.28 -4.26 0 -2.96 0.54 -9.3 -12.1 -2 -45.46 -8.18 -49.8 -8.82 -1.36 9.46 -4.86 35.54 -6 39.64a1.4 1.4 0 0 1 -2.7 -0.46c0.16 -2.38 2 -15.56 2.3 -17.18 2.96 -20.32 2.14 -25.22 6.5 -24.56 42.02 6.46 23.5 4.06 37.4 6.48Z" fill="#000001" stroke-width="1"></path>
      <path d="M329.02 102.24c0.44 0.12 -1.12 0 0 0Z" fill="#000001" stroke-width="1"></path>
      <path d="M288.86 210.62c-0.16 2.38 4.68 6.58 3.6 14.46 -1.78 13.26 0.44 4.76 -9.14 26 -3.5 7.78 -2.2 8.28 -6.74 16.46 -4.18 7.54 -4.32 8.4 -4.2 14.9 0.38 22.28 -3.46 2.16 0 38.92 2.28 24 3.28 26.2 4.38 35.36 0.46 3.86 0.96 12.54 1.04 12.68 0.84 1.44 0.34 3.08 0.68 4.62 2.72 12.16 -3.48 10.1 -3.74 7.72s0.16 1.22 -1.28 -18c-2.58 -34 -7.88 -53.9 -5.18 -69.24 2 -11.82 -0.6 -11.12 1.5 -20.24 1.2 -5.26 5.46 -10 7.54 -17.62 1.58 -5.76 2.72 -5.44 7.62 -16.56 2 -4.48 3.72 -6.66 3.82 -13.58 0 -6 1.16 -5.24 -1.58 -10.44s-1.14 -6.34 -1.66 -9.46c-1.2 -7.06 -4.84 -4 -7.02 -10.54a6.9 6.9 0 0 0 -4.8 -5.28c-10.16 -6.48 -2.26 -9.18 -3.76 -18.62a4.94 4.94 0 0 0 -2.78 -3.68c-8.28 -5.18 -6.94 -0.8 -8 2.32 -0.3 0.88 -2.98 4.82 -4 7.2 -2.3 6 -6.92 11.04 -11.06 15.68 -2.86 3.22 -4.94 9.1 -9.62 12.58 -1.22 0.92 -4.42 1.5 -6.74 6 -0.78 1.48 -3.14 0.44 -2.44 -1.46 2.84 -7.88 6.9 -4 12.88 -14.86 3.52 -6.38 5.1 -6.16 11 -14a5.24 5.24 0 0 0 -0.12 -6.58 2.22 2.22 0 0 0 -2.24 -1.14 6.3 6.3 0 0 0 -3.52 2c-9.1 7.72 -10.9 8.12 -12.92 13.38 -3.12 8 -8.84 10.68 -13.06 21.4 -2 5.22 -0.64 7.82 -0.64 13.14 0 4 -0.34 10 -0.44 13.38 -0.16 6.6 2.76 10 4.58 21.5 0.52 3.34 1.14 10.98 1.42 12.6 1.4 8.44 3.54 13 3.16 24.52 -0.2 5.9 -0.62 14 -0.96 18s-9.66 65.24 -10 67.64c-0.46 2.96 -0.42 5.38 -3.34 4.76 -1.6 -0.34 -1.04 -2.58 -0.34 -4.84 0.3 -1.04 0.86 -0.58 -10.56 -3.54 -2 -0.48 -4 -0.66 -3.54 -2.58 0 0 3.3 -29.66 3.3 -29.7 -0.1 -4.86 1.52 -9.46 1.86 -14.24a32.98 32.98 0 0 1 1.5 -7.62c0.78 -2.42 -0.34 -2.3 16.3 1.52 1.7 -14.54 2.22 -9.1 2.22 -35.24 -10.88 -1.24 -12.56 -2.84 -17.64 -3.82 -6.18 -1.16 -3.12 -3.62 2.94 -53.2 2 -15.48 1.5 -17.18 6 -16 0.58 -5.42 1.32 -11.28 10.5 -22.4 3.34 -4 4.68 -9.3 6.84 -12 1.44 -1.8 3.32 -2.66 4.56 -4.12 -12 -1.44 -23.84 -0.84 -22.7 -4.68a66 66 0 0 0 1.88 -14.54c0.52 -7.1 0.44 6.58 3.84 -32.98 0.26 -3.06 0.3 -5.5 0.3 -5.54 -0.28 -2.64 1.26 -3.64 2.28 -3.34 4.28 1.24 10 -0.32 29.36 0.22 3.26 0 0 -0.86 8.94 -0.16 7.02 0.56 6.92 0.7 7.1 1.74 0.6 3.52 -2.12 28 -5.16 43.48 4.16 -0.3 7.12 2 10.18 4a4 4 0 0 1 1.82 3.22 24.38 24.38 0 0 1 0.28 7.62c-1.04 4.34 -2.54 7.04 0.48 8.58 5.12 2.64 5.22 2.58 7.16 6 1.4 2.44 0.72 3.72 2.82 5.02 4.86 3.08 5.6 7.74 5.24 13.22Zm-25.44 -87.64c0 -2 -1.7 -1.64 -4.28 -1.86 -8.72 -0.82 -4.36 0.12 -8.8 0a150.18 150.18 0 0 0 -19.56 0.2c-10.38 -0.48 -9.84 -0.46 -8.92 0.12 -1 0.76 -1.24 20.44 -2.98 31.12 -2.2 13.66 -2.88 19.44 -2.88 20.86 5.64 1.42 20 1.72 20.9 2.2 3.08 1.7 5.12 -4.98 10 -5.06 2.84 0 2 -0.5 6.2 4.34 4 -7.02 3.44 -4.54 6.32 -21.46a290.52 290.52 0 0 0 4 -30.46Zm-41.66 163.9c-6.6 -31.04 -2 -24.34 -6.4 -38 -3.28 -10 -1.1 -11.66 -1.68 -28 0 -1 -0.92 -0.58 -1.42 -0.82S204 283.28 204 283.32c5.88 0.98 11.52 3.08 17.76 3.56Zm-10.14 90.8c1.5 -14.26 3.26 -16.86 7.44 -48.94l-13.82 -3.56c-0.96 8 -4.82 41.22 -5.18 50Z" fill="#000001" stroke-width="1"></path>
      <path d="M275.26 45.26c1.18 2.84 -1.62 40 -6 51.08 -0.38 0.96 -41.42 0.2 -42.9 0.6 -3.24 0.84 -4 -1.78 -3.32 -4A122.54 122.54 0 0 0 228 63.72a137.42 137.42 0 0 0 1.8 -16.3 3.3 3.3 0 0 1 2 -3.16 24.98 24.98 0 0 1 6.76 -0.54c35.6 1.44 35.78 -0.7 36.7 1.54Zm-2.14 3.34c0.16 -1.72 -0.96 -1.68 -2.88 -1.38s-21.52 -0.14 -24.58 -0.26a74.32 74.32 0 0 0 -12.46 -0.3c-1.16 0 -2.44 20.12 -2.44 20.16a130.12 130.12 0 0 1 -4.9 27.48c13.2 -1.28 34.18 -0.2 40.2 -0.52 1.88 0 1.8 -0.34 2 -2.18 4.34 -29.2 1.26 -1.6 5.06 -43Z" fill="#000001" stroke-width="1"></path>
      <path d="M200.46 46.4a62.26 62.26 0 0 1 0.28 7.22c-0.12 3.68 -5.6 39.22 -6.12 39.3 -1 0.16 -1.7 1.06 -2.88 0.94a44.88 44.88 0 0 0 -9.42 -0.3c-3.62 0.4 -5.12 -0.12 -10.92 0.2 -25.1 1.3 -17.56 4.74 -12.3 -34 1 -12.78 0.14 -14.8 5.42 -14 1.08 0.18 0 0.28 6.6 -0.88 14.52 -2.58 8.86 0.74 26.7 -0.72 1.9 -0.16 2.46 0.24 2.64 2.24ZM196.18 66c2.28 -16.3 2 -10.14 2 -18.64 -2 -0.2 -4.68 0.26 -8.18 0.18 -11.88 -0.24 -10 -1.14 -14.74 -0.38 -7.86 1.24 -9.72 2.12 -11.88 1.24 -0.98 -0.4 -1 1.34 -1.36 8.82 -0.3 6.42 -0.8 5.64 -2.34 14.8 -2 12.54 -2 13.46 -2.8 18.18 -0.32 2 0.94 1.36 3.14 1.22 11.66 -0.64 11.54 -1.12 13.56 -1.02 7.32 0.32 11.72 -0.8 17.18 0.24 1.38 0.32 1.58 2.52 5.42 -24.64Z" fill="#000001" stroke-width="1"></path>
      <path d="M178.6 213.08c13.02 1.68 15.6 0.34 15.22 3.76 -2 18.92 -8.54 55.34 -10.52 61.24 -0.36 1.08 -2.4 1.46 -3.66 0.84s-3.78 0.12 -5.76 -0.12a118.82 118.82 0 0 1 -23 -5.38c-2.5 -1.06 -5.64 -0.24 -7.52 -0.62 -6.22 -1.26 -7.62 -0.66 -7.4 -2.2 1.32 -9.5 1.84 -8 3.24 -14.18 0.72 -3.22 -0.56 1.32 2.94 -16.66a36.2 36.2 0 0 0 0.34 -8.24c0 -4.32 1.06 -4.18 3.5 -18 0.74 -4.16 3.56 -2.52 9.68 -1.68a15.58 15.58 0 0 0 2.14 -0.14c18.2 0.12 13.84 0.46 20.8 1.38Zm2.14 62.58c3.8 -19.32 7.58 -38.54 10.42 -58 -8.12 0 -19.06 -2.66 -24.32 -2.68 -12 0 -8.56 0.96 -18.26 -1.28 -1.36 12.26 -1.48 7.8 -2.66 15.1 -0.84 5.14 0.88 2.94 -1.7 16.2 -3.26 16.76 1.68 -2.14 -5.34 24.48a24.76 24.76 0 0 0 6.82 0.76c3.82 -0.66 8 1.2 12.16 2.3 22.28 5.92 19.74 1.46 22.88 3.12Z" fill="#000001" stroke-width="1"></path>
      <path d="M179.84 315.18c2.74 0.7 1.7 2.34 1.42 6.34 -0.72 10.6 -0.26 9.34 -0.52 11.34 -1.1 8.36 -3.3 21.22 -3.78 25.22 -2.26 18.36 -0.98 20.1 -4.48 19.1 -12.8 -3.64 -11.24 -3.32 -14 -4.96 -8 -4.78 -8.92 -1.04 -21.06 -7.44 -4.4 -2.32 -3 -1.22 0.12 -19.12 0.54 -3.18 2 -16.44 2.72 -20.66 2.92 -20.16 2.22 -18.16 5.34 -18 6.96 1.38 5.46 2 11.02 2.76 4.36 0.48 6.44 1.18 23.22 5.42Zm-7.48 58.54c2.92 -27.66 8.3 -54.76 5.86 -55.42 -26.32 -7.14 -21.7 -4.66 -33.1 -8.74 -0.24 2.16 -3.56 24.92 -4 31.78 -0.28 4.7 -1.44 5.82 -3.4 19.44 -0.14 0.98 1.54 1.74 3.88 2.74 6.14 2.68 5.6 1.66 8.6 2.28 12.26 2.6 3 2.2 22.16 7.92Z" fill="#000001" stroke-width="1"></path>
      <path d="M131.84 45.32c4 -0.2 4.54 -2.12 0.14 26.64 -0.84 5.4 -2.42 12.5 -3.72 18.66 -0.36 1.72 -2.18 1.22 -4.56 1.08 -22.6 -1.34 -30 2 -30.34 -3.46 9.12 -50 3.16 -42.2 12.72 -42.62 4.22 -0.18 20.3 -0.02 25.76 -0.3Zm-5.56 40.24c2 -6.54 6.32 -37.06 5.68 -37.08 -6.22 -0.28 -7.38 0.12 -22 -0.12 -5.58 -0.1 -2.14 0.44 -7.7 0 0 4 -3.28 27.08 -3.3 27.12 -2.84 13.26 -3.8 13.18 -1.22 13.1a117.48 117.48 0 0 1 14 -0.5c16.96 -0.08 13.04 2.1 14.54 -2.52Z" fill="#000001" stroke-width="1"></path>
      <path d="M114.34 297.4c3.2 0.74 1.7 2.54 0.82 11.58 -4 40.38 -3.54 45.6 -7.46 44.26a80.52 80.52 0 0 0 -13.36 -4c-12 -3.14 -4.24 -1.3 -11.78 -2.36 -2.3 -0.32 -4.68 -2.58 -8 -2.2 -4.24 0.48 -2 -9.6 5.08 -50.84 0.46 -2.78 -0.36 -4.82 2 -4.26 3.2 0.74 10.24 1.78 16 2.88 9.34 1.76 11.06 3.54 16.7 4.94ZM108 349.84q2.76 -24.66 5.54 -49.24a154.72 154.72 0 0 0 -31 -7.8c-7.72 55.8 -10 48 -2.66 49.84 1.54 0.38 3.02 1.02 4.56 1.34a37.14 37.14 0 0 1 11.52 2.26 84.26 84.26 0 0 1 12.04 3.6Z" fill="#000001" stroke-width="1"></path>
      <path d="M95.76 187.82c1.26 2.18 3.58 3.14 3.44 5.14 0 0.3 -0.66 0.54 -1.14 0.9a12.24 12.24 0 0 1 -4.42 -4.22c-3 -5.16 -5.06 -5.16 -5.48 -6.6 -0.52 -1.8 1.02 -2.44 2 -1.62a22.42 22.42 0 0 1 5.6 6.4Z" fill="#000001" stroke-width="1"></path>
    </g>
  </g>
</svg>